<svg width="50" height="50" viewBox="0 0 50 50" fill="none" xmlns="http://www.w3.org/2000/svg">
<g clip-path="url(#clip0_9_4)">
<g filter="url(#filter0_d_9_4)">
<path d="M36.1539 6.9231H13.8462C10.4475 6.9231 7.69232 9.67827 7.69232 13.0769V35.3846C7.69232 38.7833 10.4475 41.5385 13.8462 41.5385H36.1539C39.5525 41.5385 42.3077 38.7833 42.3077 35.3846V13.0769C42.3077 9.67827 39.5525 6.9231 36.1539 6.9231Z" fill="#1D1F23"/>
<path d="M36.1539 7.01929H13.8462C10.5006 7.01929 7.78848 9.73141 7.78848 13.077V35.3847C7.78848 38.7302 10.5006 41.4424 13.8462 41.4424H36.1539C39.4994 41.4424 42.2116 38.7302 42.2116 35.3847V13.077C42.2116 9.73141 39.4994 7.01929 36.1539 7.01929Z" stroke="black"/>
</g>
<path d="M18.0631 31.9296L16.5205 14.6154H33.4794L31.9369 31.9202L24.986 33.8461" fill="#E44D26"/>
<path d="M25 32.3738V16.0365H31.9321L30.6092 30.8078" fill="#F16529"/>
<path d="M19.6711 18.1541H25V20.2762H21.999L22.1954 22.4498H25V24.5673H20.2508L19.6711 18.1541ZM20.3442 25.6331H22.4758L22.6254 27.33L25 27.9658V30.1814L20.6435 28.9662" fill="#EBEBEB"/>
<path d="M30.3102 18.1541H24.9906V20.2762H30.1138L30.3102 18.1541ZM29.9221 22.4498H24.9906V24.5721H27.6083L27.3606 27.33L24.9906 27.9658V30.1721L29.3379 28.9662" fill="white"/>
</g>
<defs>
<filter id="filter0_d_9_4" x="-32.7115" y="-29.4807" width="115.423" height="115.423" filterUnits="userSpaceOnUse" color-interpolation-filters="sRGB">
<feFlood flood-opacity="0" result="BackgroundImageFix"/>
<feColorMatrix in="SourceAlpha" type="matrix" values="0 0 0 0 0 0 0 0 0 0 0 0 0 0 0 0 0 0 127 0" result="hardAlpha"/>
<feOffset dy="4"/>
<feGaussianBlur stdDeviation="20"/>
<feComposite in2="hardAlpha" operator="out"/>
<feColorMatrix type="matrix" values="0 0 0 0 0.0367917 0 0 0 0 0.0348958 0 0 0 0 0.0484375 0 0 0 0.1 0"/>
<feBlend mode="normal" in2="BackgroundImageFix" result="effect1_dropShadow_9_4"/>
<feBlend mode="normal" in="SourceGraphic" in2="effect1_dropShadow_9_4" result="shape"/>
</filter>
<clipPath id="clip0_9_4">
<rect width="50" height="50" fill="white"/>
</clipPath>
</defs>
</svg>
