<svg width="50" height="50" viewBox="0 0 50 50" fill="none" xmlns="http://www.w3.org/2000/svg">
<g clip-path="url(#clip0_9_22)">
<g filter="url(#filter0_d_9_22)">
<path d="M36.154 6.9231H13.9318C10.5462 6.9231 7.80154 9.67827 7.80154 13.0769V35.3846C7.80154 38.7833 10.5462 41.5385 13.9318 41.5385H36.154C39.5397 41.5385 42.2843 38.7833 42.2843 35.3846V13.0769C42.2843 9.67827 39.5397 6.9231 36.154 6.9231Z" fill="#1D1F23"/>
<path d="M36.154 7.01929H13.9318C10.5991 7.01929 7.89734 9.73141 7.89734 13.077V35.3847C7.89734 38.7302 10.5991 41.4424 13.9318 41.4424H36.154C39.4868 41.4424 42.1885 38.7302 42.1885 35.3847V13.077C42.1885 9.73141 39.4868 7.01929 36.154 7.01929Z" stroke="black"/>
</g>
<path d="M34.5885 14.5374H15.4315V33.7681H34.5885V14.5374Z" fill="#F7DF1E"/>
<path d="M28.3002 29.5616C28.686 30.1941 29.1881 30.6589 30.076 30.6589C30.8218 30.6589 31.2985 30.2847 31.2985 29.7676C31.2985 29.1479 30.8088 28.9285 29.9877 28.5679L29.5377 28.3741C28.2387 27.8185 27.3757 27.1226 27.3757 25.6512C27.3757 24.296 28.4044 23.2643 30.0121 23.2643C31.1567 23.2643 31.9795 23.6641 32.5724 24.711L31.1707 25.6147C30.8621 25.0591 30.5291 24.8402 30.0121 24.8402C29.4848 24.8402 29.1506 25.176 29.1506 25.6147C29.1506 26.1568 29.485 26.3762 30.2575 26.712L30.7075 26.9056C32.2371 27.5639 33.1006 28.2352 33.1006 29.7443C33.1006 31.3714 31.8274 32.2627 30.1176 32.2627C28.4458 32.2627 27.3657 31.4629 26.8371 30.4147L28.3002 29.5616ZM21.941 29.7181C22.2237 30.2218 22.481 30.6476 23.0994 30.6476C23.6908 30.6476 24.064 30.4152 24.064 29.5122V23.3674H25.8642V29.5366C25.8642 31.4077 24.7712 32.2593 23.176 32.2593C21.7347 32.2593 20.9 31.5106 20.4755 30.6087L21.941 29.7181Z" fill="black"/>
</g>
<defs>
<filter id="filter0_d_9_22" x="-32.6027" y="-29.4807" width="115.291" height="115.423" filterUnits="userSpaceOnUse" color-interpolation-filters="sRGB">
<feFlood flood-opacity="0" result="BackgroundImageFix"/>
<feColorMatrix in="SourceAlpha" type="matrix" values="0 0 0 0 0 0 0 0 0 0 0 0 0 0 0 0 0 0 127 0" result="hardAlpha"/>
<feOffset dy="4"/>
<feGaussianBlur stdDeviation="20"/>
<feComposite in2="hardAlpha" operator="out"/>
<feColorMatrix type="matrix" values="0 0 0 0 0.0367917 0 0 0 0 0.0348958 0 0 0 0 0.0484375 0 0 0 0.1 0"/>
<feBlend mode="normal" in2="BackgroundImageFix" result="effect1_dropShadow_9_22"/>
<feBlend mode="normal" in="SourceGraphic" in2="effect1_dropShadow_9_22" result="shape"/>
</filter>
<clipPath id="clip0_9_22">
<rect width="50" height="50" fill="white"/>
</clipPath>
</defs>
</svg>
