<svg width="100" height="100" viewBox="0 0 100 100" fill="none" xmlns="http://www.w3.org/2000/svg">
<g clip-path="url(#clip0_13_55)">
<g filter="url(#filter0_d_13_55)">
<path d="M72.0707 13.8652H27.6263C20.855 13.8652 15.3658 19.3545 15.3658 26.1258V70.5702C15.3658 77.3415 20.855 82.8307 27.6263 82.8307H72.0707C78.842 82.8307 84.3313 77.3415 84.3313 70.5702V26.1258C84.3313 19.3545 78.842 13.8652 72.0707 13.8652Z" fill="#1D1F23"/>
<path d="M72.0707 14.0569H27.6263C20.9608 14.0569 15.5573 19.4603 15.5573 26.1259V70.5703C15.5573 77.2358 20.9608 82.6393 27.6263 82.6393H72.0707C78.7362 82.6393 84.1397 77.2358 84.1397 70.5703V26.1259C84.1397 19.4603 78.7362 14.0569 72.0707 14.0569Z" stroke="black"/>
</g>
<path d="M44.7517 37.2705C39.7448 36.3586 35.7859 37.3133 34.2081 40.0457C33.0308 42.0848 33.3669 44.7886 35.0238 47.679C35.0574 47.7376 35.1021 47.789 35.1555 47.83C35.2089 47.8713 35.2699 47.9016 35.335 47.9192C35.4001 47.9369 35.4681 47.9418 35.5349 47.933C35.6018 47.9246 35.6664 47.9028 35.725 47.869C35.8431 47.8012 35.9295 47.6893 35.9652 47.5579C36.0009 47.4265 35.9828 47.2863 35.9151 47.1679C34.4224 44.5648 34.1315 42.2311 35.0975 40.5591C36.408 38.2892 39.9387 37.4376 44.5674 38.2808C44.651 38.2974 44.7376 38.2928 44.8192 38.2675C44.9004 38.2423 44.9743 38.1972 45.0341 38.1362C45.0939 38.0753 45.1372 38.0005 45.1609 37.9185C45.1843 37.8365 45.187 37.75 45.1686 37.6667C45.1467 37.5665 45.095 37.4752 45.0207 37.4047C44.9464 37.3341 44.8525 37.2874 44.7513 37.2706L44.7517 37.2705ZM37.6276 51.1916C39.6521 53.4166 42.2824 55.5035 45.282 57.2353C52.5448 61.4288 60.2766 62.5495 64.087 59.951C64.1969 59.8733 64.2717 59.7556 64.2954 59.6231C64.3192 59.4905 64.29 59.3541 64.2146 59.243C64.1387 59.1319 64.0222 59.0549 63.8904 59.0284C63.7582 59.0024 63.6215 59.0288 63.5088 59.1028C60.0981 61.428 52.7536 60.3633 45.7954 56.3461C42.8851 54.6656 40.3383 52.6453 38.3874 50.5008C38.3195 50.4238 38.23 50.369 38.1307 50.3434C38.0314 50.3173 37.9266 50.3219 37.8299 50.3564C37.7495 50.3847 37.6775 50.433 37.6204 50.4962C37.5633 50.5598 37.5229 50.6365 37.5028 50.7192C37.4827 50.802 37.4836 50.8886 37.5054 50.9713C37.5271 51.0537 37.5692 51.1296 37.6276 51.1916Z" fill="#2DD0ED"/>
<path d="M62.872 50.5671C66.1502 46.6943 67.2954 42.7989 65.7207 40.0717C64.5624 38.0651 62.113 37.0057 58.8582 36.9634C58.7218 36.9617 58.5908 37.014 58.4931 37.109C58.3954 37.204 58.3395 37.3338 58.3375 37.47C58.3364 37.5716 58.3651 37.6713 58.4203 37.7565C58.4755 37.8417 58.5552 37.9086 58.6483 37.9486C58.7103 37.9753 58.777 37.9894 58.8444 37.9904C61.772 38.0282 63.8824 38.941 64.8314 40.5851C66.1391 42.8502 65.1184 46.3242 62.0885 49.9039C62.0433 49.9552 62.0088 50.0146 61.987 50.0794C61.9651 50.1441 61.9567 50.2127 61.9617 50.2805C61.9667 50.3487 61.985 50.415 62.0161 50.4759C62.0471 50.5368 62.09 50.5909 62.1421 50.6349C62.1942 50.679 62.2548 50.7119 62.3199 50.7326C62.3847 50.7529 62.4532 50.7602 62.5214 50.7537C62.5893 50.7476 62.6552 50.7276 62.7153 50.6958C62.7755 50.6636 62.8287 50.62 62.872 50.5671ZM54.4467 37.4415C51.4824 38.0768 48.3272 39.3184 45.2977 41.0679C37.7995 45.3966 32.9085 51.7794 33.588 56.4077C33.5965 56.4755 33.6184 56.541 33.6525 56.6004C33.6866 56.6598 33.7322 56.7115 33.7866 56.7529C33.841 56.7943 33.9032 56.8246 33.9694 56.8414C34.0356 56.8587 34.1045 56.8621 34.1722 56.8525C34.2398 56.8426 34.3048 56.8192 34.3633 56.7836C34.4218 56.7483 34.4727 56.7016 34.5129 56.646C34.5531 56.5908 34.5818 56.528 34.5974 56.4613C34.613 56.3951 34.6151 56.3261 34.6037 56.2587C34.0008 52.1495 38.6368 46.0989 45.8107 41.9571C48.7498 40.2598 51.805 39.0579 54.6621 38.4453C54.7912 38.4127 54.9023 38.3315 54.9728 38.2186C55.0433 38.1055 55.0667 37.9696 55.0391 37.8395C55.0111 37.7093 54.9337 37.5951 54.8234 37.5209C54.7126 37.4466 54.5778 37.4182 54.4467 37.4415Z" fill="#2DD0ED"/>
<path d="M42.2996 59.6165C44.0146 64.4024 46.8184 67.3495 49.972 67.3495C52.2713 67.3495 54.3992 65.7821 56.0582 63.0223C56.0954 62.9644 56.1207 62.8997 56.1326 62.8319C56.1444 62.764 56.1421 62.6947 56.1268 62.6276C56.1073 62.5437 56.067 62.4664 56.0096 62.402C55.9525 62.3376 55.8797 62.289 55.7988 62.2602C55.7176 62.2311 55.6303 62.2234 55.5452 62.2368C55.4602 62.2506 55.3801 62.2855 55.3123 62.3384C55.2579 62.3805 55.2126 62.433 55.1789 62.4928C53.6874 64.9732 51.8556 66.3231 49.972 66.3231C47.3529 66.3231 44.8513 63.6943 43.2667 59.2702C43.2452 59.2054 43.2107 59.1457 43.1655 59.0943C43.1203 59.043 43.0655 59.0008 43.0042 58.9709C42.9425 58.9414 42.8759 58.9242 42.8077 58.9204C42.7395 58.9165 42.6713 58.9269 42.6069 58.9499C42.5425 58.9729 42.4835 59.0085 42.433 59.0549C42.3828 59.1008 42.3421 59.1568 42.3134 59.2188C42.2851 59.2809 42.269 59.348 42.2667 59.4162C42.2644 59.4847 42.2759 59.5526 42.3004 59.6165H42.2996ZM57.9575 58.6801C58.8448 55.8449 59.3211 52.5732 59.3211 49.1644C59.3211 40.6591 56.3444 33.3264 52.1038 31.4435C51.9801 31.3914 51.8406 31.3899 51.7157 31.4395C51.5904 31.489 51.49 31.5855 51.4352 31.7084C51.3808 31.8313 51.3766 31.9707 51.4238 32.0966C51.4709 32.2226 51.5655 32.325 51.6874 32.382C55.4694 34.0615 58.2946 41.02 58.2946 49.1644C58.2946 52.4713 57.8326 55.6395 56.9778 58.3736C56.9556 58.4384 56.9467 58.507 56.9513 58.5752C56.9563 58.6434 56.9747 58.71 57.0057 58.7713C57.0525 58.8633 57.1261 58.9391 57.2165 58.9886C57.3069 59.0384 57.41 59.0598 57.5126 59.0499C57.6153 59.0399 57.7126 58.9993 57.792 58.9334C57.8716 58.8675 57.9291 58.779 57.9575 58.6801ZM67.6268 58.1775C67.6291 57.8533 67.5671 57.5323 67.4444 57.2323C67.3218 56.9323 67.141 56.6595 66.9126 56.4296C66.6843 56.1997 66.4126 56.0173 66.1134 55.8928C65.8146 55.7683 65.4935 55.7043 65.1697 55.7043C64.8456 55.7043 64.5249 55.7687 64.2257 55.8928C63.9264 56.0173 63.6548 56.1997 63.4264 56.4296C63.1981 56.6595 63.0176 56.9323 62.895 57.2323C62.7724 57.5323 62.7103 57.8533 62.7123 58.1775C62.7165 58.8265 62.9774 59.4476 63.4375 59.9047C63.8981 60.3621 64.5207 60.6188 65.1697 60.6188C65.8188 60.6188 66.4414 60.3621 66.9015 59.9047C67.3621 59.4472 67.6226 58.8261 67.6268 58.1775ZM66.6 58.1775C66.6 58.5568 66.449 58.9204 66.1808 59.1886C65.9126 59.4568 65.549 59.6077 65.1697 59.6077C64.8866 59.6077 64.6103 59.5238 64.3751 59.3667C64.1398 59.2093 63.9567 58.9859 63.8483 58.7246C63.7402 58.4633 63.7119 58.1759 63.7671 57.8985C63.8222 57.6208 63.9582 57.366 64.1582 57.166C64.3582 56.966 64.613 56.83 64.8908 56.7748C65.1682 56.7196 65.4556 56.748 65.7169 56.856C65.9782 56.9644 66.2015 57.1476 66.359 57.3828C66.5161 57.6181 66.6 57.8943 66.6 58.1775ZM34.7389 60.6345C35.0616 60.6345 35.3811 60.5709 35.6793 60.4476C35.9774 60.3242 36.2483 60.1434 36.4765 59.915C36.7047 59.6867 36.8857 59.4158 37.0092 59.1177C37.1326 58.8196 37.1962 58.5001 37.1961 58.1775C37.1962 57.8545 37.1326 57.5349 37.0091 57.2368C36.8856 56.9388 36.7046 56.6679 36.4764 56.4395C36.2482 56.2116 35.9773 56.0303 35.6792 55.907C35.381 55.7836 35.0615 55.72 34.7387 55.72C34.4161 55.72 34.0965 55.7836 33.7984 55.907C33.5003 56.0307 33.2293 56.2116 33.0012 56.4399C32.773 56.6679 32.592 56.9388 32.4685 57.2368C32.3451 57.5349 32.2815 57.8545 32.2816 58.1775C32.2815 58.5001 32.3451 58.8196 32.4685 59.1177C32.592 59.4158 32.773 59.6867 33.0012 59.915C33.2294 60.143 33.5003 60.3242 33.7985 60.4476C34.0966 60.5709 34.4161 60.6345 34.7389 60.6345ZM34.7389 59.6077C34.3594 59.6077 33.9955 59.4568 33.7272 59.1886C33.4589 58.9204 33.3082 58.5564 33.3082 58.1771C33.3082 57.7978 33.4589 57.4338 33.7272 57.1656C33.9955 56.897 34.3594 56.7464 34.7389 56.7464C35.1183 56.7464 35.4822 56.897 35.7505 57.1656C36.0188 57.4338 36.1695 57.7978 36.1695 58.1771C36.1695 58.5564 36.0188 58.9204 35.7505 59.1886C35.4822 59.4568 35.1183 59.6077 34.7389 59.6077Z" fill="#2DD0ED"/>
<path d="M49.972 33.95C50.4578 33.95 50.9329 33.8059 51.3372 33.5359C51.7414 33.2659 52.0563 32.882 52.2421 32.433C52.3965 32.0597 52.4567 31.6539 52.4172 31.2518C52.3774 30.8497 52.2395 30.4636 52.0149 30.1276C51.7904 29.7916 51.4866 29.5162 51.1303 29.3257C50.7739 29.1352 50.3759 29.0355 49.972 29.0354C49.4858 29.0353 49.0107 29.1794 48.6065 29.4494C48.2027 29.7194 47.8873 30.1031 47.7015 30.5522C47.5153 31.0012 47.467 31.4953 47.5617 31.972C47.6567 32.4487 47.8908 32.8865 48.2345 33.2302C48.4624 33.4583 48.7333 33.6393 49.0314 33.7628C49.3299 33.8863 49.6494 33.95 49.972 33.95ZM49.972 32.9229C49.6893 32.9229 49.4126 32.839 49.1774 32.6819C48.9421 32.5247 48.7586 32.3013 48.6506 32.04C48.5785 31.8665 48.5414 31.6805 48.5414 31.4926C48.5414 31.3048 48.5785 31.1188 48.6506 30.9453C48.7222 30.7717 48.8276 30.614 48.9605 30.4812C49.0935 30.3484 49.251 30.2431 49.4245 30.1712C49.6199 30.0903 49.831 30.0537 50.0421 30.0641C50.2536 30.0744 50.4598 30.1316 50.6464 30.2313C50.8329 30.331 50.995 30.4708 51.1211 30.6407C51.2471 30.8106 51.3337 31.0064 51.3751 31.2138C51.4165 31.4213 51.4111 31.6353 51.3598 31.8405C51.3084 32.0457 51.2119 32.2369 51.0778 32.4004C50.9437 32.5639 50.7747 32.6957 50.5835 32.7861C50.3923 32.8765 50.1835 32.9234 49.972 32.9234V32.9229ZM50.3475 50.9028C49.8862 51.0024 49.4046 50.9146 49.0084 50.6591C48.7126 50.4687 48.4801 50.1947 48.3402 49.8717C48.2004 49.5491 48.1594 49.1924 48.2222 48.8461C48.2851 48.5001 48.4494 48.1805 48.6939 47.9277C48.9387 47.6752 49.2529 47.5005 49.5965 47.4265C50.0544 47.3349 50.5299 47.4269 50.9203 47.6832C51.3107 47.9392 51.5847 48.3384 51.6835 48.7947C51.782 49.251 51.6969 49.7277 51.4471 50.1219C51.1969 50.5162 50.8019 50.7966 50.3475 50.9024V50.9028Z" fill="#2DD0ED"/>
</g>
<defs>
<filter id="filter0_d_13_55" x="-24.9427" y="-22.4431" width="149.582" height="149.582" filterUnits="userSpaceOnUse" color-interpolation-filters="sRGB">
<feFlood flood-opacity="0" result="BackgroundImageFix"/>
<feColorMatrix in="SourceAlpha" type="matrix" values="0 0 0 0 0 0 0 0 0 0 0 0 0 0 0 0 0 0 127 0" result="hardAlpha"/>
<feOffset dy="4"/>
<feGaussianBlur stdDeviation="20"/>
<feComposite in2="hardAlpha" operator="out"/>
<feColorMatrix type="matrix" values="0 0 0 0 0.0367917 0 0 0 0 0.0348958 0 0 0 0 0.0484375 0 0 0 0.1 0"/>
<feBlend mode="normal" in2="BackgroundImageFix" result="effect1_dropShadow_13_55"/>
<feBlend mode="normal" in="SourceGraphic" in2="effect1_dropShadow_13_55" result="shape"/>
</filter>
<clipPath id="clip0_13_55">
<rect width="100" height="100" fill="white"/>
</clipPath>
</defs>
</svg>
