<svg width="24" height="24" viewBox="0 0 24 24" fill="none" xmlns="http://www.w3.org/2000/svg">
<g id="Icons/Close">
<rect id="Bg" width="24" height="24" fill="white" fill-opacity="0.01"/>
<path id="Fill 1" fill-rule="evenodd" clip-rule="evenodd" d="M22.7735 1.22688C22.4709 0.92423 21.9807 0.92423 21.6781 1.22688L12.0002 10.9045L2.32235 1.22688C2.0197 0.92423 1.52958 0.92423 1.22693 1.22688C0.924276 1.52953 0.924276 2.01965 1.22693 2.3223L10.9048 11.9999L1.22693 21.6778C0.924276 21.9802 0.924276 22.4706 1.22693 22.7732C1.37825 22.9246 1.57656 23 1.77464 23C1.97294 23 2.17102 22.9246 2.32235 22.7732L12.0002 13.0954L21.6781 22.7732C21.8294 22.9246 22.0275 23 22.2258 23C22.4241 23 22.6222 22.9246 22.7735 22.7732C23.0762 22.4706 23.0762 21.9802 22.7735 21.6778L13.0956 11.9999L22.7735 2.3223C23.0762 2.01965 23.0762 1.52953 22.7735 1.22688Z" fill="#121212"/>
</g>
</svg>
