<svg width="50" height="35" viewBox="0 0 50 35" fill="none" xmlns="http://www.w3.org/2000/svg">
<path d="M47.1834 8.78566L26.7526 1.11752C25.3649 0.641978 23.9772 0.641978 22.5895 1.11752L2.15871 8.78566C1.49054 9.02344 0.950863 9.46926 0.539679 10.1231C0.179893 10.7176 0 11.4012 0 12.1739C0 12.9467 0.179893 13.66 0.539679 14.3139C0.950863 14.9083 1.49054 15.3244 2.15871 15.5622L4.47163 16.4538C4.21463 16.9888 4.00905 17.5536 3.85486 18.148C3.44367 18.3856 3.10958 18.7423 2.85259 19.2179C2.59561 19.6934 2.46711 20.1986 2.46711 20.7337C2.46711 21.2687 2.59561 21.774 2.85259 22.2495C3.10958 22.725 3.44367 23.0817 3.85486 23.3194L2.46711 33.3058C2.41571 33.722 2.46711 34.1084 2.6213 34.465C2.82689 34.8216 3.08388 35 3.39226 35H6.47616C6.78454 35 7.01583 34.8216 7.17003 34.465C7.37562 34.1084 7.45271 33.722 7.40132 33.3058L6.01357 23.3194C6.42475 23.0817 6.75884 22.725 7.01583 22.2495C7.27282 21.774 7.40132 21.2687 7.40132 20.7337C7.40132 19.7826 7.06722 19.0395 6.39905 18.5046C6.50185 18.0885 6.65604 17.7021 6.86163 17.3454L11.0249 18.8612L9.86842 29.2935C9.86842 30.3041 10.5366 31.2551 11.8729 32.1467C13.2093 33.0383 15.0082 33.7517 17.2697 34.2866C19.5313 34.7623 21.9984 35 24.6711 35C27.3437 35 29.8108 34.7623 32.0724 34.2866C34.3339 33.7517 36.1328 33.0383 37.4692 32.1467C38.8055 31.2551 39.4737 30.3041 39.4737 29.2935L38.3172 18.8612L47.1834 15.5622C47.8516 15.3244 48.3655 14.9083 48.7253 14.3139C49.1366 13.66 49.3421 12.9467 49.3421 12.1739C49.3421 11.4012 49.1366 10.7176 48.7253 10.1231C48.3655 9.46926 47.8516 9.02344 47.1834 8.78566ZM36.9295 29.1151C36.4155 29.769 35.182 30.3932 33.2288 30.9876C30.7617 31.7604 27.9091 32.1467 24.6711 32.1467C21.433 32.1467 18.5804 31.7604 16.1133 30.9876C14.1601 30.3932 12.9266 29.769 12.4126 29.1151L13.4149 19.7529L22.5895 23.2303C23.9772 23.7653 25.3649 23.7653 26.7526 23.2303L35.9272 19.7529L36.9295 29.1151ZM46.4124 12.8872L25.9817 20.4662C25.1079 20.8229 24.2342 20.8229 23.3604 20.4662L9.79133 15.3839L24.9024 12.1739C25.2108 12.1145 25.4678 11.9361 25.6733 11.6389C25.8789 11.2823 25.9561 10.9256 25.9046 10.5689C25.8532 10.1528 25.6733 9.82591 25.3649 9.58814C25.0566 9.35037 24.7482 9.26121 24.4397 9.32065L8.71196 12.7089C7.8382 12.9467 6.99013 13.3925 6.16776 14.0464L2.92968 12.8872C2.6213 12.7683 2.46711 12.5306 2.46711 12.1739C2.46711 11.8172 2.6213 11.5795 2.92968 11.4606L23.3604 3.88162C24.2342 3.52497 25.1079 3.52497 25.9817 3.88162L46.4124 11.4606C46.7208 11.5795 46.875 11.8172 46.875 12.1739C46.875 12.5306 46.7208 12.7683 46.4124 12.8872Z" fill="#F5DFA1"/>
</svg>
