<svg width="50" height="50" viewBox="0 0 50 50" fill="none" xmlns="http://www.w3.org/2000/svg">
<path d="M45.3125 11.574H34.375V3.76152C34.375 3.03813 34.1472 2.42326 33.6913 1.9169C33.2357 1.41053 32.6823 1.15735 32.0313 1.15735H17.9687C17.3177 1.15735 16.7643 1.41053 16.3086 1.9169C15.8529 2.42326 15.625 3.03813 15.625 3.76152V11.574H4.6875C3.38542 11.574 2.27865 12.0804 1.36719 13.0931C0.45573 14.1058 0 15.3356 0 16.7823V44.5601C0 46.007 0.45573 47.2366 1.36719 48.2494C2.27865 49.2622 3.38542 49.7685 4.6875 49.7685H45.3125C46.6147 49.7685 47.7213 49.2622 48.6328 48.2494C49.5443 47.2366 50 46.007 50 44.5601V16.7823C50 15.3356 49.5443 14.1058 48.6328 13.0931C47.7213 12.0804 46.6147 11.574 45.3125 11.574ZM18.75 4.62957H31.25V11.574H18.75V4.62957ZM46.875 44.5601C46.875 45.0664 46.7122 45.5005 46.3867 45.8622C46.1263 46.1516 45.7682 46.2962 45.3125 46.2962H4.6875C4.23177 46.2962 3.84115 46.1516 3.51563 45.8622C3.25522 45.5005 3.125 45.0664 3.125 44.5601V28.9351H18.75V33.2755C18.75 33.9988 18.9778 34.6136 19.4337 35.1199C19.8893 35.6264 20.4427 35.8796 21.0937 35.8796H28.9063C29.5573 35.8796 30.1107 35.6264 30.5663 35.1199C31.0222 34.6136 31.25 33.9988 31.25 33.2755V28.9351H46.875V44.5601ZM21.875 32.4073V28.9351H28.125V32.4073H21.875ZM46.875 25.4629H3.125V16.7823C3.125 16.276 3.25522 15.8781 3.51563 15.5888C3.84115 15.2271 4.23177 15.0462 4.6875 15.0462H45.3125C45.7682 15.0462 46.1263 15.2271 46.3867 15.5888C46.7122 15.8781 46.875 16.276 46.875 16.7823V25.4629Z" fill="#F5DFA1"/>
</svg>
