<svg width="100" height="100" viewBox="0 0 100 100" fill="none" xmlns="http://www.w3.org/2000/svg">
<g clip-path="url(#clip0_13_75)">
<g filter="url(#filter0_d_13_75)">
<path d="M72.308 14.0208H27.8636C21.0923 14.0208 15.6031 19.51 15.6031 26.2813V70.7257C15.6031 77.497 21.0923 82.9863 27.8636 82.9863H72.308C79.0793 82.9863 84.5686 77.497 84.5686 70.7257V26.2813C84.5686 19.51 79.0793 14.0208 72.308 14.0208Z" fill="#1D1F23"/>
<path d="M72.308 14.2124H27.8636C21.1981 14.2124 15.7946 19.6159 15.7946 26.2814V70.7258C15.7946 77.3913 21.1981 82.7948 27.8636 82.7948H72.308C78.9735 82.7948 84.377 77.3913 84.377 70.7258V26.2814C84.377 19.6159 78.9735 14.2124 72.308 14.2124Z" stroke="black"/>
</g>
<path d="M49.9142 29.6638C39.3356 29.6638 30.7571 38.2406 30.7571 48.8211C30.7571 57.2851 36.2463 64.466 43.8579 66.9993C44.8153 67.1767 45.1671 66.5836 45.1671 66.0778C45.1671 65.6208 45.1491 64.1116 45.141 62.5108C39.8111 63.6698 38.6866 60.2506 38.6866 60.2506C37.8153 58.0365 36.5597 57.4476 36.5597 57.4476C34.8216 56.2587 36.6907 56.2828 36.6907 56.2828C38.6146 56.4181 39.6272 58.2571 39.6272 58.2571C41.336 61.1859 44.1088 60.3391 45.2023 59.8499C45.374 58.6116 45.8705 57.7663 46.4184 57.2882C42.1632 56.8035 37.6903 55.161 37.6903 47.8204C37.6903 45.7292 38.4387 44.02 39.6644 42.6786C39.4651 42.1958 38.8096 40.2476 39.8498 37.6087C39.8498 37.6087 41.4586 37.0938 45.1192 39.5725C46.6475 39.148 48.2862 38.9349 49.9142 38.928C51.5425 38.9349 53.1824 39.148 54.7134 39.5725C58.3701 37.0938 59.9766 37.6087 59.9766 37.6087C61.0192 40.2476 60.3632 42.1958 60.1644 42.6786C61.3924 44.02 62.1356 45.7288 62.1356 47.8204C62.1356 55.1782 57.6544 56.7985 53.3885 57.2729C54.0755 57.8671 54.6878 59.0334 54.6878 60.8204C54.6878 63.3836 54.6655 65.4468 54.6655 66.0778C54.6655 66.5874 55.0104 67.1847 55.9816 66.9966C63.5893 64.4606 69.0713 57.2824 69.0713 48.8211C69.0713 38.2406 60.4943 29.6638 49.9142 29.6638Z" fill="white"/>
<path d="M37.9321 56.9536C37.8901 57.0486 37.7401 57.0773 37.6038 57.0118C37.4648 56.9494 37.3867 56.8195 37.4318 56.7241C37.4731 56.626 37.623 56.5988 37.7617 56.6647C37.901 56.7272 37.9803 56.8578 37.9321 56.9536ZM38.8743 57.7942C38.7832 57.8789 38.6046 57.8398 38.4832 57.7057C38.3579 57.5724 38.3345 57.3938 38.4272 57.3076C38.5215 57.2229 38.6947 57.2628 38.8203 57.3965C38.9456 57.5314 38.9697 57.7084 38.8743 57.7942ZM39.5211 58.8701C39.4035 58.9517 39.2115 58.875 39.0927 58.7049C38.9755 58.5344 38.9755 58.3302 39.0954 58.2482C39.2146 58.1666 39.4035 58.2402 39.5238 58.4091C39.641 58.5823 39.6414 58.7865 39.5211 58.8701ZM40.6142 60.116C40.5092 60.2317 40.2855 60.2007 40.1219 60.0429C39.9544 59.8885 39.9077 59.6689 40.013 59.5532C40.1192 59.4371 40.3441 59.4697 40.5092 59.6264C40.6755 59.7808 40.7261 60.0015 40.6142 60.116ZM42.0272 60.5367C41.9809 60.6865 41.7655 60.7547 41.5487 60.6911C41.3318 60.6256 41.1901 60.4498 41.2337 60.298C41.2789 60.1471 41.495 60.0762 41.7138 60.1444C41.9303 60.2095 42.0724 60.3842 42.0272 60.5367ZM43.6353 60.7153C43.6406 60.8731 43.4567 61.0042 43.2288 61.0068C42.9996 61.0118 42.8146 60.8842 42.8123 60.7287C42.8123 60.5693 42.992 60.4394 43.2211 60.4356C43.4487 60.431 43.6353 60.5582 43.6353 60.7153ZM45.215 60.6547C45.2425 60.8088 45.0839 60.967 44.8579 61.0091C44.6356 61.0498 44.4295 60.9547 44.4012 60.8019C44.3736 60.6436 44.5349 60.4854 44.7571 60.4444C44.9835 60.4053 45.1862 60.498 45.215 60.6547Z" fill="white"/>
</g>
<defs>
<filter id="filter0_d_13_75" x="-24.7054" y="-22.2876" width="149.582" height="149.582" filterUnits="userSpaceOnUse" color-interpolation-filters="sRGB">
<feFlood flood-opacity="0" result="BackgroundImageFix"/>
<feColorMatrix in="SourceAlpha" type="matrix" values="0 0 0 0 0 0 0 0 0 0 0 0 0 0 0 0 0 0 127 0" result="hardAlpha"/>
<feOffset dy="4"/>
<feGaussianBlur stdDeviation="20"/>
<feComposite in2="hardAlpha" operator="out"/>
<feColorMatrix type="matrix" values="0 0 0 0 0.0367917 0 0 0 0 0.0348958 0 0 0 0 0.0484375 0 0 0 0.1 0"/>
<feBlend mode="normal" in2="BackgroundImageFix" result="effect1_dropShadow_13_75"/>
<feBlend mode="normal" in="SourceGraphic" in2="effect1_dropShadow_13_75" result="shape"/>
</filter>
<clipPath id="clip0_13_75">
<rect width="100" height="100" fill="white"/>
</clipPath>
</defs>
</svg>
