<svg width="50" height="50" viewBox="0 0 50 50" fill="none" xmlns="http://www.w3.org/2000/svg">
<g clip-path="url(#clip0_9_41)">
<g filter="url(#filter0_d_9_41)">
<path d="M36.154 6.9231H13.9318C10.5462 6.9231 7.80154 9.67827 7.80154 13.0769V35.3846C7.80154 38.7833 10.5462 41.5385 13.9318 41.5385H36.154C39.5397 41.5385 42.2843 38.7833 42.2843 35.3846V13.0769C42.2843 9.67827 39.5397 6.9231 36.154 6.9231Z" fill="#1D1F23"/>
<path d="M36.154 7.01929H13.9318C10.5991 7.01929 7.89734 9.73141 7.89734 13.077V35.3847C7.89734 38.7302 10.5991 41.4424 13.9318 41.4424H36.154C39.4868 41.4424 42.1885 38.7302 42.1885 35.3847V13.077C42.1885 9.73141 39.4868 7.01929 36.154 7.01929Z" stroke="black"/>
</g>
<path d="M24.2785 14.8777C24.7536 14.6047 25.3722 14.6035 25.8469 14.8777C28.2345 16.232 30.623 17.5842 33.0101 18.9394C33.4592 19.1933 33.7596 19.695 33.755 20.2142V28.3625C33.7582 28.9034 33.4283 29.4171 32.9546 29.6652C30.5747 31.0121 28.1962 32.3605 25.8168 33.7075C25.332 33.9857 24.7008 33.9642 24.2312 33.6632C23.5176 33.248 22.803 32.8348 22.0894 32.4202C21.9437 32.3328 21.7793 32.2634 21.6762 32.1215C21.7672 31.9982 21.9301 31.983 22.0622 31.9292C22.3601 31.8342 22.6337 31.6815 22.9073 31.5334C22.9764 31.4859 23.0609 31.5042 23.1272 31.5467C23.7373 31.8978 24.3419 32.2592 24.9542 32.6069C25.0847 32.6827 25.217 32.5823 25.3285 32.5198C27.664 31.1948 30.0021 29.8748 32.337 28.5494C32.4235 28.5077 32.4714 28.4155 32.4644 28.3203C32.4659 25.6325 32.4647 22.944 32.4651 20.2561C32.4751 20.148 32.4128 20.0488 32.3157 20.0048C29.944 18.664 27.5737 17.3212 25.2025 15.9802C25.1615 15.9518 25.1128 15.9366 25.063 15.9365C25.0132 15.9364 24.9644 15.9515 24.9232 15.9797C22.5521 17.3212 20.1822 18.6652 17.811 20.0059C17.7141 20.0502 17.6491 20.1477 17.6606 20.2561C17.661 22.944 17.6606 25.6325 17.6606 28.3207C17.6565 28.3671 17.6667 28.4138 17.6897 28.4542C17.7128 28.4946 17.7476 28.5271 17.7896 28.5469C18.4223 28.9071 19.0559 29.2648 19.6891 29.6238C20.0458 29.8165 20.4837 29.9311 20.8768 29.7834C21.2235 29.6584 21.4667 29.3032 21.4599 28.9336C21.4632 26.2613 21.4584 23.5886 21.4624 20.9169C21.4538 20.7982 21.5659 20.7002 21.6808 20.7113C21.9849 20.7094 22.2893 20.7073 22.5933 20.7123C22.7203 20.7094 22.8075 20.8371 22.7917 20.9565C22.7906 23.6457 22.7952 26.335 22.7898 29.0242C22.7906 29.7407 22.4973 30.5207 21.837 30.8713C21.0234 31.2944 20.0178 31.2048 19.2142 30.799C18.5183 30.4503 17.8543 30.039 17.1708 29.6655C16.6959 29.4188 16.3675 28.903 16.3708 28.3627V20.2142C16.3659 19.6842 16.6781 19.1734 17.1411 18.9232C19.5205 17.5752 21.8996 16.2262 24.2785 14.8777Z" fill="#8CC84B"/>
<path d="M26.3544 20.5221C27.3921 20.455 28.5031 20.4823 29.437 20.9955C30.16 21.3888 30.5607 22.2142 30.5736 23.0205C30.5532 23.1292 30.44 23.1892 30.3366 23.1817C30.0356 23.1813 29.7345 23.1859 29.4333 23.1798C29.3055 23.1846 29.2314 23.0665 29.2153 22.953C29.1287 22.5673 28.9191 22.1852 28.5575 21.999C28.0021 21.72 27.3582 21.734 26.7527 21.7398C26.3107 21.7634 25.8352 21.8019 25.4607 22.0628C25.1734 22.2603 25.086 22.6594 25.1885 22.9807C25.2852 23.2115 25.5508 23.2859 25.7678 23.3546C27.0184 23.683 28.3437 23.6503 29.5705 24.0825C30.0783 24.2586 30.5751 24.6011 30.749 25.1348C30.9764 25.8504 30.8768 26.7055 30.3697 27.2798C29.9584 27.7525 29.3596 28.0098 28.7623 28.1496C27.9676 28.3273 27.1429 28.3319 26.3358 28.2528C25.577 28.1661 24.7873 27.9659 24.2015 27.4469C23.7006 27.0103 23.4559 26.33 23.4803 25.6734C23.486 25.5625 23.596 25.4852 23.7017 25.4942C24.005 25.4917 24.3082 25.4909 24.6115 25.4946C24.7326 25.4859 24.8224 25.5909 24.8285 25.7055C24.8845 26.0732 25.022 26.459 25.3414 26.6769C25.9577 27.0761 26.7308 27.0486 27.4366 27.06C28.0211 27.0338 28.6774 27.0259 29.1544 26.638C29.4061 26.4169 29.4806 26.0467 29.4126 25.7284C29.3389 25.4596 29.0588 25.3342 28.8182 25.2523C27.5835 24.8603 26.2435 25.0025 25.0209 24.5592C24.5245 24.383 24.0444 24.0502 23.8538 23.5382C23.5877 22.8138 23.7096 21.9177 24.2699 21.3627C24.8161 20.8105 25.6046 20.5982 26.3544 20.5221Z" fill="#8CC84B"/>
</g>
<defs>
<filter id="filter0_d_9_41" x="-32.6027" y="-29.4807" width="115.291" height="115.423" filterUnits="userSpaceOnUse" color-interpolation-filters="sRGB">
<feFlood flood-opacity="0" result="BackgroundImageFix"/>
<feColorMatrix in="SourceAlpha" type="matrix" values="0 0 0 0 0 0 0 0 0 0 0 0 0 0 0 0 0 0 127 0" result="hardAlpha"/>
<feOffset dy="4"/>
<feGaussianBlur stdDeviation="20"/>
<feComposite in2="hardAlpha" operator="out"/>
<feColorMatrix type="matrix" values="0 0 0 0 0.0367917 0 0 0 0 0.0348958 0 0 0 0 0.0484375 0 0 0 0.1 0"/>
<feBlend mode="normal" in2="BackgroundImageFix" result="effect1_dropShadow_9_41"/>
<feBlend mode="normal" in="SourceGraphic" in2="effect1_dropShadow_9_41" result="shape"/>
</filter>
<clipPath id="clip0_9_41">
<rect width="50" height="50" fill="white"/>
</clipPath>
</defs>
</svg>
