<svg width="100" height="100" viewBox="0 0 100 100" fill="none" xmlns="http://www.w3.org/2000/svg">
<g clip-path="url(#clip0_13_44)">
<g filter="url(#filter0_d_13_44)">
<path d="M72.308 14.1345H27.8636C21.0923 14.1345 15.6031 19.6238 15.6031 26.3951V70.8395C15.6031 77.6108 21.0923 83.1 27.8636 83.1H72.308C79.0793 83.1 84.5686 77.6108 84.5686 70.8395V26.3951C84.5686 19.6238 79.0793 14.1345 72.308 14.1345Z" fill="#1D1F23"/>
<path d="M72.308 14.3262H27.8636C21.1981 14.3262 15.7946 19.7296 15.7946 26.3951V70.8396C15.7946 77.5051 21.1981 82.9085 27.8636 82.9085H72.308C78.9735 82.9085 84.377 77.5051 84.377 70.8396V26.3951C84.377 19.7296 78.9735 14.3262 72.308 14.3262Z" stroke="black"/>
</g>
<path d="M50.1257 36.9707C45.0173 36.9707 41.8242 39.5242 40.5471 44.6311C42.4629 42.0775 44.6981 41.1204 47.2521 41.7583C48.7096 42.1227 49.7514 43.1798 50.9042 44.3499C52.7824 46.2556 54.9563 48.4614 59.7046 48.4614C64.8127 48.4614 68.0061 45.9078 69.2828 40.8005C67.3675 43.3541 65.1326 44.312 62.5778 43.674C61.1207 43.3097 60.0793 42.2522 58.9261 41.0825C57.0479 39.1763 54.874 36.9707 50.1257 36.9707ZM40.5471 48.4614C35.4388 48.4614 32.2456 51.015 30.9688 56.1223C32.8842 53.5687 35.1192 52.6112 37.6738 53.2499C39.1307 53.6143 40.1724 54.6714 41.3257 55.8407C43.2038 57.7465 45.3778 59.953 50.1257 59.953C55.2345 59.953 58.4272 57.3993 59.7046 52.292C57.7885 54.8457 55.5537 55.8035 52.9996 55.1648C51.5422 54.8012 50.5004 53.7434 49.3471 52.5737C47.4694 50.6679 45.2954 48.4614 40.5471 48.4614Z" fill="#06B6D4"/>
</g>
<defs>
<filter id="filter0_d_13_44" x="-24.7054" y="-22.1738" width="149.582" height="149.582" filterUnits="userSpaceOnUse" color-interpolation-filters="sRGB">
<feFlood flood-opacity="0" result="BackgroundImageFix"/>
<feColorMatrix in="SourceAlpha" type="matrix" values="0 0 0 0 0 0 0 0 0 0 0 0 0 0 0 0 0 0 127 0" result="hardAlpha"/>
<feOffset dy="4"/>
<feGaussianBlur stdDeviation="20"/>
<feComposite in2="hardAlpha" operator="out"/>
<feColorMatrix type="matrix" values="0 0 0 0 0.0367917 0 0 0 0 0.0348958 0 0 0 0 0.0484375 0 0 0 0.1 0"/>
<feBlend mode="normal" in2="BackgroundImageFix" result="effect1_dropShadow_13_44"/>
<feBlend mode="normal" in="SourceGraphic" in2="effect1_dropShadow_13_44" result="shape"/>
</filter>
<clipPath id="clip0_13_44">
<rect width="100" height="100" fill="white"/>
</clipPath>
</defs>
</svg>
