<svg width="100" height="100" viewBox="0 0 100 100" fill="none" xmlns="http://www.w3.org/2000/svg">
<g clip-path="url(#clip0_13_69)">
<g filter="url(#filter0_d_13_69)">
<path d="M72.308 13.9067H27.8636C21.0923 13.9067 15.6031 19.396 15.6031 26.1673V70.6117C15.6031 77.383 21.0923 82.8723 27.8636 82.8723H72.308C79.0793 82.8723 84.5686 77.383 84.5686 70.6117V26.1673C84.5686 19.396 79.0793 13.9067 72.308 13.9067Z" fill="#1D1F23"/>
<path d="M72.308 14.0984H27.8636C21.1981 14.0984 15.7946 19.5018 15.7946 26.1674V70.6118C15.7946 77.2773 21.1981 82.6808 27.8636 82.6808H72.308C78.9735 82.6808 84.377 77.2773 84.377 70.6118V26.1674C84.377 19.5018 78.9735 14.0984 72.308 14.0984Z" stroke="black"/>
</g>
<path d="M68.8743 34.7479L51.205 66.8912C50.8402 67.5548 49.9027 67.5586 49.5326 66.8984L31.513 34.7509C31.1096 34.0313 31.7145 33.1596 32.5161 33.3055L50.2042 36.5217C50.3173 36.5423 50.4326 36.5421 50.5456 36.5212L67.8636 33.3099C68.6628 33.1618 69.2705 34.0268 68.8743 34.7479Z" fill="url(#paint0_linear_13_69)"/>
<path d="M58.6299 29.0866L45.5544 31.6932C45.4498 31.714 45.3552 31.7696 45.285 31.8511C45.2149 31.9327 45.1736 32.0356 45.1674 32.1437L44.3632 45.9637C44.3586 46.0396 44.3716 46.1154 44.4011 46.1852C44.4306 46.2549 44.4755 46.317 44.5326 46.3656C44.5896 46.4147 44.6571 46.4495 44.7295 46.4675C44.8019 46.4852 44.8778 46.4859 44.9506 46.4687L48.5908 45.6139C48.9314 45.5338 49.2395 45.8392 49.1693 46.1878L48.0877 51.576C48.0149 51.9384 48.3494 52.2484 48.6977 52.1407L50.9463 51.4461C51.2946 51.3384 51.6299 51.6491 51.5559 52.0124L49.8372 60.4756C49.7295 61.0051 50.4218 61.294 50.7103 60.8399L50.9034 60.5369L61.5582 38.9047C61.7368 38.5422 61.4287 38.1294 61.0379 38.2062L57.2904 38.9419C56.9383 39.0108 56.6387 38.6775 56.7383 38.3269L59.1839 29.7014C59.2835 29.3501 58.9824 29.0163 58.6299 29.0866Z" fill="url(#paint1_linear_13_69)"/>
</g>
<defs>
<filter id="filter0_d_13_69" x="-24.7054" y="-22.4016" width="149.582" height="149.582" filterUnits="userSpaceOnUse" color-interpolation-filters="sRGB">
<feFlood flood-opacity="0" result="BackgroundImageFix"/>
<feColorMatrix in="SourceAlpha" type="matrix" values="0 0 0 0 0 0 0 0 0 0 0 0 0 0 0 0 0 0 127 0" result="hardAlpha"/>
<feOffset dy="4"/>
<feGaussianBlur stdDeviation="20"/>
<feComposite in2="hardAlpha" operator="out"/>
<feColorMatrix type="matrix" values="0 0 0 0 0.0367917 0 0 0 0 0.0348958 0 0 0 0 0.0484375 0 0 0 0.1 0"/>
<feBlend mode="normal" in2="BackgroundImageFix" result="effect1_dropShadow_13_69"/>
<feBlend mode="normal" in="SourceGraphic" in2="effect1_dropShadow_13_69" result="shape"/>
</filter>
<linearGradient id="paint0_linear_13_69" x1="31.0731" y1="35.8988" x2="50.556" y2="61.9076" gradientUnits="userSpaceOnUse">
<stop stop-color="#41D1FF"/>
<stop offset="1" stop-color="#BD34FE"/>
</linearGradient>
<linearGradient id="paint1_linear_13_69" x1="51.8437" y1="29.7943" x2="55.8981" y2="57.1323" gradientUnits="userSpaceOnUse">
<stop stop-color="#FFEA83"/>
<stop offset="0.083" stop-color="#FFDD35"/>
<stop offset="1" stop-color="#FFA800"/>
</linearGradient>
<clipPath id="clip0_13_69">
<rect width="100" height="100" fill="white"/>
</clipPath>
</defs>
</svg>
